<svg viewBox="0 0 216 60" fill="none" xmlns="http://www.w3.org/2000/svg" preserveAspectRatio="none"><defs><style>g {display: none}g:target,.g-filter {display: inline}</style><filter id="filter0_f_3262_3289" x="-120.289" y="-141.517" width="380.274" height="320.123" filterUnits="userSpaceOnUse" color-interpolation-filters="sRGB"><feFlood flood-opacity="0" result="BackgroundImageFix"/><feBlend mode="normal" in="SourceGraphic" in2="BackgroundImageFix" result="shape"/><feGaussianBlur stdDeviation="50" result="effect1_foregroundBlur_3262_3289"/></filter><filter id="filter1_f_3262_3289" x="3.95435" y="-104.102" width="313.687" height="283.692" filterUnits="userSpaceOnUse" color-interpolation-filters="sRGB"><feFlood flood-opacity="0" result="BackgroundImageFix"/><feBlend mode="normal" in="SourceGraphic" in2="BackgroundImageFix" result="shape"/><feGaussianBlur stdDeviation="50" result="effect1_foregroundBlur_3262_3289"/></filter></defs><mask id="mask0_3262_3289" style="mask-type:alpha" maskUnits="userSpaceOnUse" x="0" y="0" width="216" height="60"><path d="M215.624 3.80201C215.566 3.04943 214.95 2.53306 214.616 2.51777C211.88 2.38521 208.929 2.37956 205.943 2.20103C202.957 2.0225 169.33 1.72271 166.51 1.00055C166.142 0.969647 165.759 0.115593 165.383 0.0873106L164.235 0.00881171C162.525 -0.0856313 160.797 0.613007 159.083 0.488017C156.735 0.367495 154.416 0.615971 152.078 0.644394C149.74 0.672817 147.3 1.0695 144.961 1.26299C143.211 1.40777 141.492 1.66598 139.815 1.82364C138.595 1.93837 137.401 2.10463 136.212 2.21223C134.438 2.35394 132.679 2.46772 130.96 2.60242C128.36 2.80615 125.803 3.01008 123.27 3.12024C121.876 3.15075 120.477 3.14121 119.065 3.12826C117.028 3.10949 114.972 3.06915 112.832 2.97709C111.122 2.90662 109.36 2.8571 107.549 2.77614C105.977 2.76478 104.361 2.69075 102.774 2.55781C100.082 2.29541 97.2656 2.16952 94.389 2.1795C93.1132 2.22443 91.843 2.23124 90.613 2.19899C87.9548 2.09511 85.3995 2.00219 82.6457 2.20277C81.6516 2.25443 80.6835 2.26475 79.775 2.23282C79.0884 2.19204 78.3805 2.1673 77.6571 2.15857C75.0839 2.24966 72.5736 2.34442 70.126 2.44282C68.0108 2.48578 65.9335 2.54018 63.9233 2.57235C62.5459 2.59439 61.1756 2.63111 59.8125 2.68252C58.2845 2.7468 56.784 2.86025 55.2725 2.93813C54.966 2.93733 54.6592 2.95243 54.3625 2.983C53.1079 3.19151 51.7784 3.07513 50.478 3.08946C49.3799 3.13207 48.2907 3.18949 47.2106 3.26172C45.9433 3.29244 44.6562 3.28341 43.3705 3.27914L34.9919 3.15522C33.4475 3.17839 31.9358 3.19968 30.42 3.29184C28.9028 3.38534 27.2939 3.54108 25.7708 3.65924C24.5162 3.79495 23.2177 3.87701 21.9047 3.90361C19.0815 3.91142 16.2682 4.01848 13.5084 4.22317C10.9594 4.3987 8.34211 4.42412 5.76827 4.29837C5.44184 4.29741 5.11572 4.3306 4.79201 4.39772C4.0182 4.6067 2.44886 4.65284 2.44886 4.65284C1.86008 4.53667 0.696287 4.90513 0.696287 4.90513C0.696287 4.90513 0.391822 6.7589 0.238043 7.39883C-0.112208 10.4621 0.0275186 16.0006 0.0275186 16.0006L0.840804 27.0775C0.840804 27.0775 1.79605 31.3328 1.53511 39.6889C1.52674 40.136 1.45731 40.583 1.46597 41.0301C1.3941 43.103 1.7788 47.3118 1.7788 47.3118L1.78216 49.3027L1.58327 56.6607L2.38685 58.1405C2.74152 58.1655 3.0715 58.2298 3.41513 58.256C4.72133 58.437 6.03434 58.4568 7.34245 58.3153C8.35215 58.1083 9.41051 57.9539 10.4944 57.8553C12.4102 57.7589 14.3398 57.7723 16.2206 57.7697C17.1292 57.8227 18.0351 57.958 18.9341 58.1747C21.6319 58.6541 24.3934 59.0706 27.2186 59.4243C29.5462 59.6424 31.9465 59.7889 34.4196 59.8638C36.4857 59.9232 38.5828 59.9891 40.6823 60C41.8418 59.9872 42.9927 59.9428 44.1251 59.867C45.077 59.7886 46.0463 59.7323 47.0266 59.6983C48.6757 59.6844 50.3343 59.7156 51.987 59.7912C53.7518 59.8906 55.5318 59.9454 57.327 59.9555C59.1202 59.9647 60.9256 59.9264 62.7221 59.8454C66.0024 59.6762 69.3922 59.7327 72.7429 59.7272C75.3582 59.7478 77.9654 59.6199 80.4596 59.3487C81.7521 59.1644 83.1305 59.0616 84.5288 59.0452C88.2545 59.0936 91.9878 59.1983 95.7056 59.354C98.408 59.4668 101.103 59.6817 103.789 59.8911C106.679 60.1033 109.421 59.8911 112.162 59.6656C113.171 59.5657 114.196 59.4868 115.232 59.4292C117.739 59.3218 120.262 59.2573 122.769 59.1607C123.713 59.1077 124.643 59.0277 125.549 58.9217C127.377 58.7337 129.189 58.5242 131.017 58.3389C131.314 58.3242 131.611 58.3395 131.907 58.3846C134.875 58.7391 137.804 59.158 140.803 59.4372C143.295 59.6478 145.831 59.7923 148.394 59.8575C149.963 59.8856 151.544 59.8631 153.12 59.7905C155.493 59.6963 157.871 59.5749 160.253 59.4265C160.918 59.3316 161.566 59.2213 162.195 59.0963C164.026 58.8793 165.857 58.6587 167.711 58.4871C170.343 58.2424 203.622 58.0631 206.262 57.8328C208.096 57.8709 209.92 57.4192 211.66 56.4961C211.934 56.3912 212.214 56.3421 212.495 56.3502C212.646 56.3606 212.792 56.44 212.915 56.579C213.014 56.8195 213.097 57.0769 213.16 57.3465C213.743 57.5424 214.349 57.459 214.903 57.1069C215.205 56.9343 215.478 56.6497 215.698 56.2766C215.813 55.9205 215.925 54.686 216 54.326C215.576 53.2456 215.586 52.2409 215.6 49.4842C214.616 45.9184 215.461 43.4694 215.091 37.7187C214.826 33.5975 214.379 32.7921 214.681 28.1633C214.809 26.1281 214.345 21.5653 214.681 19.5918C215.011 17.6054 215.036 16.6162 215.461 14.7779C215.624 11.6327 216.131 10.4082 215.624 3.80201Z" fill="#6F3646"/></mask><g id="off" mask="url(#mask0_3262_3289)"><rect x="-24.6294" y="-21.3327" width="254.552" height="116.148" fill="#34DA9E"/><path d="M177.008 2.33409L113.99 7.66742L68.6182 5.00075L31.3886 7.95711L4.53386 6.49688L-8.2627 6.33409V2.33409L4.61355 5.18268L31.0699 5.3287L292.286 -17.3048C292.286 -17.3048 293.853 -8.34875 294.836 11.1696L280.652 10.2935L254.434 6.35086L229.942 5.00075L203.195 6.35086L177.008 2.33409Z" fill="#090A09" fill-opacity="0.16"/><path d="M49.4539 3.15816L8.36478 3.03191L6.86405 5.86348L8.00254 10.6429L4.27657 17.7309L6.13955 31.9248L6.5018 58.1124L17.9902 58.2386L32.0661 58.8879L51.2651 57.2106L82.3666 58.1124L104.205 57.5893L172.669 58.2386L213.396 57.4631L212.62 51.5294L210.033 48.8241L208.584 43.9184L210.033 36.5599V26.1174L212.258 17.8751H217.433L224.471 63C146.381 62.6573 -10.0891 62.0513 -11.2483 62.3688C-12.4075 62.6862 -10.7653 24.927 -9.79929 6.00777L-6.07333 -2L216.708 -0.0701997L222.245 5.48474L217.433 15.8011L211.896 16.4503L212.258 14.1238L212.62 11.7972L212.258 7.81132L210.395 3.93368L208.946 3.28441L194.508 3.03191L156.782 4.05993H135.669L99.7544 4.33047L80.5036 3.42869L62.029 3.80744L49.4539 3.15816Z" fill="black" fill-opacity="0.1"/><path d="M-12.2634 62.343L-51.1685 55.9179L-53.6711 68.622L2.90432 74.1708L266.215 75.7771L269.097 57.5242L246.194 59.1304L226.931 54.4577L202.739 59.8606L190.453 57.5242H176.953L158.904 55.1878H117.572L91.7869 59.8606L1.61506 60.7367L-12.2634 62.343Z" fill="#090A09" fill-opacity="0.16"/><g filter="url(#filter0_f_3262_3289)"><path d="M24.9693 -6.50927C24.9693 -6.50927 -15.4955 -41.5173 -18.774 -41.5173L-20.2886 78.6057H119.227L159.986 57.2268L102.879 27.4298L58.9127 13.1327L39.5356 -7.17737L24.9693 -6.50927Z" fill="#272727" fill-opacity="0.1"/></g><g filter="url(#filter1_f_3262_3289)"><path d="M189.1 55.1995C189.1 55.1995 214.618 79.5904 216.686 79.5904L217.641 -4.10191L129.658 -4.10191L103.954 10.7933L139.968 31.5534L167.694 41.5146L179.914 55.665L189.1 55.1995Z" fill="#272727" fill-opacity="0.1"/></g></g><g id="hover" mask="url(#mask0_3262_3289)"><rect x="-24.6294" y="-21.3327" width="254.552" height="116.148" fill="#336150"/><path d="M177.008 2.33409L113.99 7.66742L68.6182 5.00075L31.3886 7.95711L4.53386 6.49688L-8.2627 6.33409V2.33409L4.61355 5.18268L31.0699 5.3287L292.286 -17.3048C292.286 -17.3048 293.853 -8.34875 294.836 11.1696L280.652 10.2935L254.434 6.35086L229.942 5.00075L203.195 6.35086L177.008 2.33409Z" fill="#090A09" fill-opacity="0.16"/><path d="M49.4539 3.15816L8.36478 3.03191L6.86405 5.86348L8.00254 10.6429L4.27657 17.7309L6.13955 31.9248L6.5018 58.1124L17.9902 58.2386L32.0661 58.8879L51.2651 57.2106L82.3666 58.1124L104.205 57.5893L172.669 58.2386L213.396 57.4631L212.62 51.5294L210.033 48.8241L208.584 43.9184L210.033 36.5599V26.1174L212.258 17.8751H217.433L224.471 63C146.381 62.6573 -10.0891 62.0513 -11.2483 62.3688C-12.4075 62.6862 -10.7653 24.927 -9.79929 6.00777L-6.07333 -2L216.708 -0.0701997L222.245 5.48474L217.433 15.8011L211.896 16.4503L212.258 14.1238L212.62 11.7972L212.258 7.81132L210.395 3.93368L208.946 3.28441L194.508 3.03191L156.782 4.05993H135.669L99.7544 4.33047L80.5036 3.42869L62.029 3.80744L49.4539 3.15816Z" fill="black" fill-opacity="0.1"/><path d="M-12.2634 62.343L-51.1685 55.9179L-53.6711 68.622L2.90432 74.1708L266.215 75.7771L269.097 57.5242L246.194 59.1304L226.931 54.4577L202.739 59.8606L190.453 57.5242H176.953L158.904 55.1878H117.572L91.7869 59.8606L1.61506 60.7367L-12.2634 62.343Z" fill="#090A09" fill-opacity="0.16"/><g filter="url(#filter0_f_3262_3289)"><path d="M24.9693 -6.50927C24.9693 -6.50927 -15.4955 -41.5173 -18.774 -41.5173L-20.2886 78.6057H119.227L159.986 57.2268L102.879 27.4298L58.9127 13.1327L39.5356 -7.17737L24.9693 -6.50927Z" fill="#272727" fill-opacity="0.1"/></g><g filter="url(#filter1_f_3262_3289)"><path d="M189.1 55.1995C189.1 55.1995 214.618 79.5904 216.686 79.5904L217.641 -4.10191L129.658 -4.10191L103.954 10.7933L139.968 31.5534L167.694 41.5146L179.914 55.665L189.1 55.1995Z" fill="#272727" fill-opacity="0.1"/></g></g></svg>